<?xml version="1.0" encoding="utf-8"?>
<!-- Generator: Adobe Illustrator 16.0.0, SVG Export Plug-In . SVG Version: 6.00 Build 0)  -->
<!DOCTYPE svg PUBLIC "-//W3C//DTD SVG 1.1//EN" "http://www.w3.org/Graphics/SVG/1.1/DTD/svg11.dtd">
<svg version="1.1" id="Layer_1" xmlns="http://www.w3.org/2000/svg" xmlns:xlink="http://www.w3.org/1999/xlink" x="0px" y="0px"
	 width="612px" height="792px" viewBox="0 0 612 792" enable-background="new 0 0 612 792" xml:space="preserve">
<path stroke="#000000" stroke-width="8.6505" stroke-miterlimit="10" d="M354.439,506.068c0,26.568-21.537,48.109-48.109,48.109
	c-26.573,0-48.11-21.541-48.11-48.109s21.537-48.11,48.11-48.11C332.902,457.958,354.439,479.5,354.439,506.068z"/>
<path stroke="#000000" stroke-width="8.6505" stroke-miterlimit="10" d="M458.893,129.913H153.767
	c-17.2,0-31.143,13.943-31.143,31.143v469.152c0,17.2,13.943,31.139,31.143,31.139h305.126c17.199,0,31.143-13.938,31.143-31.139
	V161.056C490.035,143.856,476.092,129.913,458.893,129.913z M306.33,624.168c-65.226,0-118.101-52.875-118.101-118.1
	c0-65.226,52.875-118.101,118.101-118.101c65.225,0,118.1,52.875,118.1,118.101C424.43,571.293,371.555,624.168,306.33,624.168z
	 M461.604,315.279c0,17.2-13.943,31.143-31.144,31.143H182.198c-17.2,0-31.143-13.943-31.143-31.143v-127.98
	c0-17.2,13.943-31.143,31.143-31.143h248.263c17.2,0,31.144,13.943,31.144,31.143V315.279z"/>
</svg>
